<svg xmlns="http://www.w3.org/2000/svg" version="1.1" xmlns:xlink="http://www.w3.org/1999/xlink" xmlns:svgjs="http://svgjs.dev/svgjs" width="1000" height="803" viewBox="0 0 1000 803"><g transform="matrix(1,0,0,1,0,0)"><svg viewBox="0 0 448 360" data-background-color="#ffffff" preserveAspectRatio="xMidYMid meet" height="803" width="1000" xmlns="http://www.w3.org/2000/svg" xmlns:xlink="http://www.w3.org/1999/xlink"><g id="tight-bounds" transform="matrix(1,0,0,1,0,0)"><svg viewBox="0 0 448 360" height="360" width="448"><g><svg></svg></g><g><svg viewBox="0 0 448 360" height="360" width="448"><g><path xmlns="http://www.w3.org/2000/svg" d="M193.855 44.683c1.378 0 2.494 1.116 2.495 2.494 0 1.378-1.116 2.494-2.495 2.495h-23.846l-17.167 17.167c-0.973 0.973-2.551 0.973-3.53 0-0.973-0.973-0.973-2.551 0-3.529l13.644-13.645h-40.378c-11.518 0-19.151 2.688-23.815 8.113-4.739 5.519-6.66 14.056-6.66 25.63 0 0.069 0 0.137-0.006 0.206l0.212 36.692 14.692-14.692c0.973-0.973 2.551-0.973 3.53 0 0.973 0.973 0.973 2.551 0 3.53l-18.178 18.178c0.206 35.832 0.193 71.358-0.013 107.19 25.486 25.2 50.617 50.312 75.811 75.791h25.38c1.378 0 2.494 1.116 2.495 2.495 0 1.378-1.116 2.494-2.495 2.494h-20.448l25.942 26.241 0.006-0.006c8.188 8.188 15.577 12.859 22.824 13.413 7.146 0.543 14.442-2.956 22.586-11.093l28.555-28.555h-20.722c-1.378 0-2.494-1.116-2.495-2.494 0-1.378 1.116-2.494 2.495-2.495h25.711l16.625-16.625c0.973-0.973 2.551-0.973 3.529 0 0.973 0.973 0.973 2.551 0 3.53l-13.101 13.102h40.377c11.518 0 19.151-2.688 23.815-8.113 4.739-5.519 6.66-14.056 6.66-25.63h0.013l-0.212-36.898-16.014 16.014c-0.973 0.973-2.551 0.973-3.53 0-0.973-0.973-0.973-2.551 0-3.53l19.5-19.5c-0.206-35.832-0.193-71.358 0.013-107.19-25.486-25.2-50.617-50.312-75.811-75.791h-26.147c-1.378 0-2.494-1.116-2.495-2.495 0-1.378 1.116-2.494 2.495-2.494h21.215l-25.824-26.123c-0.044-0.037-0.081-0.075-0.124-0.112-8.188-8.188-15.577-12.859-22.824-13.413-7.146-0.543-14.442 2.956-22.586 11.093l-28.555 28.555h18.858zM122.578 44.683h45.367l32.078-32.078c9.248-9.248 17.81-13.195 26.484-12.534 8.568 0.649 16.956 5.824 25.985 14.854 0.05 0.05 0.094 0.094 0.137 0.143l29.278 29.615h43.508c13.071 0 21.919 3.268 27.594 9.871 5.6 6.517 7.864 16.101 7.864 28.867 0 0.081-0.006 0.156-0.012 0.23l-0.225 39.742 28.43 28.112 0.006-0.006c9.03 9.03 14.206 17.411 14.854 25.985 0.661 8.674-3.293 17.236-12.534 26.484l-30.768 30.768 0.237 41.843h0.012c0 12.765-2.27 22.35-7.864 28.867-5.675 6.604-14.524 9.872-27.594 9.871h-45.366l-32.078 32.078c-9.248 9.248-17.81 13.195-26.484 12.534-8.568-0.649-16.956-5.824-25.985-14.854l0.006-0.006-29.421-29.758h-43.509c-13.071 0-21.919-3.268-27.594-9.872-5.6-6.517-7.864-16.101-7.863-28.866h0.012l0.231-39.972-28.293-27.969c-0.05-0.044-0.1-0.087-0.143-0.137-9.03-9.03-14.206-17.411-14.854-25.985-0.661-8.674 3.293-17.236 12.534-26.484l30.768-30.768-0.237-41.607c-0.006-0.075-0.012-0.156-0.012-0.23 0-12.765 2.27-22.35 7.864-28.867 5.675-6.604 14.524-9.872 27.594-9.871zM87.682 179.997l-0.274-47.724-27.276 27.276c-8.138 8.138-11.636 15.44-11.094 22.587 0.549 7.246 5.226 14.642 13.413 22.823 0.037 0.037 0.081 0.081 0.113 0.125l24.837 24.551 0.281-49.644zM92.303 241.483l-0.2 35.09h0.013c0 11.58 1.921 20.117 6.66 25.63 4.664 5.432 12.297 8.113 23.815 8.113h38.576l-33.55-33.936-35.308-34.903zM325.415 49.672h-38.575l33.549 33.936 35.308 34.902 0.2-34.884c-0.006-0.069-0.006-0.137-0.007-0.205 0-11.58-1.921-20.117-6.66-25.63-4.664-5.432-12.297-8.113-23.815-8.113zM360.599 130.352l-0.281 49.645 0.274 47.724 27.276-27.276c8.138-8.138 11.636-15.44 11.094-22.587-0.549-7.252-5.226-14.642-13.413-22.824l0.006-0.006-24.956-24.669z" fill="#8a0303" fill-rule="nonzero" stroke="none" stroke-width="1" stroke-linecap="butt" stroke-linejoin="miter" stroke-miterlimit="10" stroke-dasharray="" stroke-dashoffset="0" font-family="none" font-weight="none" font-size="none" text-anchor="none" style="mix-blend-mode: normal" data-fill-palette-color="tertiary"></path></g><g transform="matrix(1,0,0,1,152.11493147633712,90)"><svg viewBox="0 0 143.7701370473258 180" height="180" width="143.7701370473258"><g><svg viewBox="0 0 254.37638907589394 318.4788647630533" height="180" width="143.7701370473258"><g transform="matrix(1,0,0,1,15.188194537946984,267.38719975336994)"><svg viewBox="0 0 223.99999999999997 51.09166500968339" height="51.09166500968339" width="223.99999999999997"><g id="textblocktransform"><svg viewBox="0 0 223.99999999999997 51.09166500968339" height="51.09166500968339" width="223.99999999999997" id="textblock"><g><svg viewBox="0 0 223.99999999999997 27.55640276325425" height="27.55640276325425" width="223.99999999999997"><g transform="matrix(1,0,0,1,0,0)"><svg width="223.99999999999997" viewBox="2.9000000953674316 -35.349998474121094 365.36521240234373 44.999996185302734" height="27.55640276325425" data-palette-color="#8a0303"><g transform="matrix(1,0,0,1,0,0)"><g><svg width="16.03013671875" viewBox="1.7799999713897705 -36.36000061035156 74.20999908447266 36.36000061035156" height="7.854000000000001" data-palette-color="#8a0303" id="scriptelement" x="352.23506026888964" y="-35.349998474121094"><path d="M12.91-30.02L1.78-30.02 1.78-36.36 31.64-36.36 31.64-30.02 20.51-30.02 20.51 0 12.91 0 12.91-30.02ZM36.57 0L36.57-36.36 46.06-36.36 56.07-11.93 56.5-11.93 66.51-36.36 75.99-36.36 75.99 0 68.53 0 68.53-23.67 68.23-23.67 58.82-0.18 53.74-0.18 44.33-23.76 44.03-23.76 44.03 0 36.57 0Z" opacity="1" transform="matrix(1,0,0,1,0,0)" fill="#8a0303" class="undefined-123" id="p-123"></path></svg></g></g><g class="undefined-text-0" data-fill-palette-color="primary" id="text-0"><path d="M23.6-9.2L23.6-9.2Q23.6-4.75 20.45-2.2 17.3 0.35 12.3 0.35L12.3 0.35Q6.75 0.35 3.1-1.8L3.1-1.8 3.1-7.15Q7.05-4.2 12.25-4.2L12.25-4.2Q15-4.2 16.6-5.48 18.2-6.75 18.2-9L18.2-9Q18.2-10.35 17.25-11.48 16.3-12.6 15.2-13.18 14.1-13.75 11.9-14.75L11.9-14.75Q10.6-15.35 10.08-15.6 9.55-15.85 8.35-16.5 7.15-17.15 6.58-17.6 6-18.05 5.15-18.85 4.3-19.65 3.93-20.45 3.55-21.25 3.23-22.33 2.9-23.4 2.9-24.65L2.9-24.65Q2.9-28.95 6.03-31.45 9.15-33.95 14.1-33.95L14.1-33.95Q18.65-33.95 21.85-32.35L21.85-32.35 21.85-27.25Q18.5-29.35 14.25-29.35L14.25-29.35Q11.5-29.35 9.93-28.13 8.35-26.9 8.35-24.9 8.35-22.9 9.9-21.7 11.45-20.5 14.65-19.1L14.65-19.1Q16.75-18.2 17.93-17.55 19.1-16.9 20.63-15.73 22.15-14.55 22.88-12.93 23.6-11.3 23.6-9.2ZM37.7-3.65L37.7-3.65Q40.1-3.65 41.47-4.98 42.85-6.3 42.85-8.45L42.85-8.45 42.85-11.3 39.05-11.3Q36.25-11.3 34.82-10.2 33.4-9.1 33.4-7.4L33.4-7.4Q33.4-5.65 34.5-4.65 35.6-3.65 37.7-3.65ZM43 0L43-3Q41.05 0.2 36.15 0.2L36.15 0.2Q32.55 0.2 30.37-1.88 28.2-3.95 28.2-7.15L28.2-7.15Q28.2-10.8 30.95-12.83 33.7-14.85 38.65-14.85L38.65-14.85 42.85-14.85 42.85-16.3Q42.85-18.9 41.6-20.23 40.35-21.55 37.45-21.55L37.45-21.55Q33.4-21.55 30.1-19.3L30.1-19.3 30.1-24.05Q33.05-25.75 37.9-25.75L37.9-25.75Q47.85-25.75 47.85-16.1L47.85-16.1 47.85 0 43 0ZM75.8-25.35L75.8-2.15Q75.8 3.7 72.47 6.68 69.15 9.65 63.95 9.65L63.95 9.65Q59.05 9.65 55.7 8L55.7 8 55.7 3.05Q58.9 5.15 63.45 5.15L63.45 5.15Q70.9 5.15 70.9-2.2L70.9-2.2 70.9-4.8Q68.45-0.7 63.55-0.7L63.55-0.7Q59.25-0.7 56.2-3.88 53.15-7.05 53.15-12.85L53.15-12.85Q53.15-18.45 56-22.08 58.85-25.7 63.55-25.7L63.55-25.7Q68.59-25.7 70.9-21.4L70.9-21.4 70.9-25.35 75.8-25.35ZM58.3-12.95L58.3-12.95Q58.3-9 60.12-6.95 61.95-4.9 64.45-4.9L64.45-4.9Q67.05-4.9 68.97-6.93 70.9-8.95 70.9-12.6L70.9-12.6Q70.9-17.1 69.07-19.25 67.25-21.4 64.65-21.4L64.65-21.4Q61.7-21.4 60-19.07 58.3-16.75 58.3-12.95ZM90.59-3.65L90.59-3.65Q92.99-3.65 94.37-4.98 95.74-6.3 95.74-8.45L95.74-8.45 95.74-11.3 91.94-11.3Q89.14-11.3 87.72-10.2 86.29-9.1 86.29-7.4L86.29-7.4Q86.29-5.65 87.39-4.65 88.49-3.65 90.59-3.65ZM95.89 0L95.89-3Q93.94 0.2 89.04 0.2L89.04 0.2Q85.44 0.2 83.27-1.88 81.09-3.95 81.09-7.15L81.09-7.15Q81.09-10.8 83.84-12.83 86.59-14.85 91.54-14.85L91.54-14.85 95.74-14.85 95.74-16.3Q95.74-18.9 94.49-20.23 93.24-21.55 90.34-21.55L90.34-21.55Q86.29-21.55 82.99-19.3L82.99-19.3 82.99-24.05Q85.94-25.75 90.79-25.75L90.79-25.75Q100.74-25.75 100.74-16.1L100.74-16.1 100.74 0 95.89 0ZM112.24-13.5L112.24 0 107.34 0 107.34-25.35 112.24-25.35 112.24-20.9Q114.09-25.6 118.89-25.6L118.89-25.6Q119.59-25.6 120.44-25.45L120.44-25.45 120.44-20.65Q119.39-21.1 118.09-21.1L118.09-21.1Q115.54-21.1 113.89-18.85 112.24-16.6 112.24-13.5L112.24-13.5Z" fill="#8a0303" data-fill-palette-color="primary"></path><path d="M146.34-11.95L146.34-11.95 141.54-11.95 141.54 0 136.39 0 136.39-33.7 146.04-33.7Q151.84-33.7 155.24-30.63 158.64-27.55 158.64-22.75 158.64-17.95 155.21-14.95 151.79-11.95 146.34-11.95ZM145.84-29.45L145.84-29.45 141.54-29.45 141.54-16.2 145.94-16.2Q149.59-16.2 151.51-18 153.44-19.8 153.44-22.75L153.44-22.75Q153.44-25.85 151.49-27.65 149.54-29.45 145.84-29.45ZM184.64-17L184.64 0 179.74 0 179.74-16Q179.74-18.6 178.41-20.03 177.09-21.45 174.94-21.45L174.94-21.45Q172.44-21.45 170.51-19.55 168.59-17.65 168.59-13.75L168.59-13.75 168.59 0 163.69 0 163.69-35.35 168.59-35.35 168.59-21Q170.74-25.7 176.44-25.7L176.44-25.7Q180.14-25.7 182.39-23.4 184.64-21.1 184.64-17L184.64-17ZM199.43-3.65L199.43-3.65Q201.83-3.65 203.21-4.98 204.58-6.3 204.58-8.45L204.58-8.45 204.58-11.3 200.78-11.3Q197.98-11.3 196.56-10.2 195.13-9.1 195.13-7.4L195.13-7.4Q195.13-5.65 196.23-4.65 197.33-3.65 199.43-3.65ZM204.73 0L204.73-3Q202.78 0.2 197.88 0.2L197.88 0.2Q194.28 0.2 192.11-1.88 189.93-3.95 189.93-7.15L189.93-7.15Q189.93-10.8 192.68-12.83 195.43-14.85 200.38-14.85L200.38-14.85 204.58-14.85 204.58-16.3Q204.58-18.9 203.33-20.23 202.08-21.55 199.18-21.55L199.18-21.55Q195.13-21.55 191.83-19.3L191.83-19.3 191.83-24.05Q194.78-25.75 199.63-25.75L199.63-25.75Q209.58-25.75 209.58-16.1L209.58-16.1 209.58 0 204.73 0ZM221.08-13.5L221.08 0 216.18 0 216.18-25.35 221.08-25.35 221.08-20.9Q222.93-25.6 227.73-25.6L227.73-25.6Q228.43-25.6 229.28-25.45L229.28-25.45 229.28-20.65Q228.23-21.1 226.93-21.1L226.93-21.1Q224.38-21.1 222.73-18.85 221.08-16.6 221.08-13.5L221.08-13.5ZM267.98-17.05L267.98 0 263.08 0 263.08-16Q263.08-21.45 258.68-21.45L258.68-21.45Q256.48-21.45 254.75-19.5 253.03-17.55 253.03-13.75L253.03-13.75 253.03 0 248.13 0 248.13-16Q248.13-21.45 243.68-21.45L243.68-21.45Q241.53-21.45 239.78-19.5 238.03-17.55 238.03-13.75L238.03-13.75 238.03 0 233.13 0 233.13-25.35 238.03-25.35 238.03-21.3Q240.18-25.7 245.18-25.7L245.18-25.7Q250.88-25.7 252.48-20.8L252.48-20.8Q253.53-23.15 255.53-24.43 257.53-25.7 260.03-25.7L260.03-25.7Q263.93-25.7 265.95-23.4 267.98-21.1 267.98-17.05L267.98-17.05ZM282.83-3.65L282.83-3.65Q285.23-3.65 286.6-4.98 287.98-6.3 287.98-8.45L287.98-8.45 287.98-11.3 284.18-11.3Q281.38-11.3 279.95-10.2 278.53-9.1 278.53-7.4L278.53-7.4Q278.53-5.65 279.63-4.65 280.73-3.65 282.83-3.65ZM288.13 0L288.13-3Q286.18 0.2 281.28 0.2L281.28 0.2Q277.68 0.2 275.5-1.88 273.33-3.95 273.33-7.15L273.33-7.15Q273.33-10.8 276.08-12.83 278.83-14.85 283.78-14.85L283.78-14.85 287.98-14.85 287.98-16.3Q287.98-18.9 286.73-20.23 285.48-21.55 282.58-21.55L282.58-21.55Q278.53-21.55 275.23-19.3L275.23-19.3 275.23-24.05Q278.18-25.75 283.03-25.75L283.03-25.75Q292.98-25.75 292.98-16.1L292.98-16.1 292.98 0 288.13 0ZM317.47-5.4L317.47-1Q315.02 0.5 311.22 0.5L311.22 0.5Q305.27 0.5 301.72-3.25 298.17-7 298.17-12.6L298.17-12.6Q298.17-18.05 301.75-21.93 305.32-25.8 311.42-25.8L311.42-25.8Q314.72-25.8 317.47-24.4L317.47-24.4 317.47-19.9Q315.02-21.45 311.92-21.45L311.92-21.45Q307.97-21.45 305.6-18.95 303.22-16.45 303.22-12.55L303.22-12.55Q303.32-8.7 305.57-6.23 307.82-3.75 311.87-3.75L311.87-3.75Q314.87-3.75 317.47-5.4L317.47-5.4ZM344.22-25.35L335.07-0.7Q331.42 9.05 323.92 9.05L323.92 9.05Q322.57 9.05 321.62 8.8L321.62 8.8 321.62 4.6Q322.42 4.8 323.32 4.8L323.32 4.8Q328.17 4.8 330.12-0.55L330.12-0.55 320.02-25.35 325.47-25.35 328.62-17.1 332.57-6.4Q333.02-7.9 336.17-17.1L336.17-17.1 339.02-25.35 344.22-25.35Z" fill="#8a0303" data-fill-palette-color="primary"></path></g></svg></g></svg></g><g transform="matrix(1,0,0,1,0,34.06180810199226)"><svg viewBox="0 0 209.27556987426976 17.029856907691126" height="17.029856907691126" width="209.27556987426976"><g transform="matrix(1,0,0,1,0,0)"><svg width="209.27556987426976" viewBox="2.690000057220459 -40.15999984741211 685.5399780273438 55.790000915527344" height="17.029856907691126" data-palette-color="#8a0303"><path d="M31.3-2.1Q29.17-0.81 26.66-0.07 24.15 0.66 22.19 0.66L22.19 0.66Q18.19 0.66 14.55-0.63L14.55-0.63Q9.57-2.44 6.54-5.98L6.54-5.98Q2.69-10.5 2.69-17.43L2.69-17.43Q2.69-22.44 5.25-26.55 7.81-30.66 12.34-33.06 16.87-35.45 22.08-35.45 27.29-35.45 31.42-33.13 35.55-30.81 38.04-26.76 40.53-22.71 40.53-17.98 40.53-13.26 38.06-9 35.6-4.74 31.3-2.1L31.3-2.1ZM7.81-18.21Q7.81-14.16 9.61-10.17 11.4-6.18 14.75-3.66 18.09-1.15 22.49-1.15L22.49-1.15Q28.74-1.15 32.23-5.93L32.23-5.93Q35.38-10.25 35.38-16.97 35.38-23.68 31.52-28.54L31.52-28.54Q29.64-30.91 26.92-32.34 24.19-33.76 21.42-33.76 18.65-33.76 16.88-33.15 15.11-32.54 13.67-31.48 12.23-30.42 11.13-28.96 10.03-27.49 9.3-25.78L9.3-25.78Q7.81-22.27 7.81-18.21ZM70.17-7.69L70.17-7.69 70.12-12.84Q70.12-15.99 69.59-17.26 69.05-18.53 68.22-19.18 67.39-19.82 65.98-19.82 64.58-19.82 60.04-17.63L60.04-17.63Q59.43-17.26 59.4-16.94L59.4-16.94 59.4-3.81Q59.4-1.34 62.04-0.98L62.04-0.98Q63.19-0.81 63.19-0.43 63.19-0.05 62.95 0L62.95 0 52.06 0Q51.81-0.05 51.81-0.34L51.81-0.34Q51.81-0.81 52.96-0.98L52.96-0.98Q55.6-1.34 55.6-3.81L55.6-3.81 55.6-17.82Q55.6-18.85 54.47-19.24L54.47-19.24Q53.99-19.41 53.42-19.52 52.86-19.63 52.53-19.73 52.2-19.82 52.12-19.91 52.03-20 52.03-20.28 52.03-20.56 52.4-20.75L52.4-20.75 58.62-23.68Q58.92-23.83 58.99-23.83L58.99-23.83Q59.4-23.83 59.4-23.24L59.4-23.24 59.4-19.43Q59.48-19.19 59.6-19.19L59.6-19.19Q59.75-19.19 60.65-19.63L60.65-19.63Q62.75-20.68 64.87-21.66 67-22.63 68.39-22.63L68.39-22.63Q74.03-22.63 74.03-12.35L74.03-12.35 73.81-5.22 73.81-3.81Q73.81-1.9 75.71-1.32L75.71-1.32Q76.52-1.05 77.26-0.94 78.01-0.83 78.24-0.73 78.47-0.63 78.47-0.34 78.47-0.05 78.23 0L78.23 0 66.46 0Q66.22-0.05 66.22-0.34L66.22-0.34Q66.22-0.81 67.36-0.98L67.36-0.98Q69.98-1.34 69.98-4L69.98-4Q70.17-5.22 70.17-7.69ZM97.01-0.93L97.01-0.93Q98.16-0.78 98.16-0.34L98.16-0.34Q98.16-0.05 97.91 0L97.91 0 87.02 0Q86.78-0.05 86.78-0.34L86.78-0.34Q86.78-0.78 87.93-0.93L87.93-0.93Q90.56-1.32 90.56-3.71L90.56-3.71 90.56-34.16Q90.56-35.18 89.44-35.57L89.44-35.57Q88.95-35.74 88.39-35.85 87.83-35.96 87.5-36.06 87.17-36.16 87.08-36.24 87-36.33 87-36.61 87-36.89 87.36-37.08L87.36-37.08 93.59-40.01Q93.88-40.16 93.96-40.16L93.96-40.16Q94.37-40.16 94.37-39.58L94.37-39.58 94.37-3.71Q94.37-1.32 97.01-0.93ZM122.62-21.97L131.88-21.97Q132.15-21.9 132.15-21.63 132.15-21.36 132.1-21.28 132.05-21.19 131.86-21.13 131.68-21.07 131.35-21.02 131.02-20.97 130.31-20.84 129.61-20.7 129.05-19.85 128.48-18.99 127.85-17.48L127.85-17.48 116.37 10.96 114.79 14.33Q114.18 15.63 112.22 15.63L112.22 15.63Q111.37 15.63 110.86 15.06 110.34 14.5 110.34 13.73 110.34 12.96 110.72 12.61 111.1 12.26 111.61 12.04 112.13 11.82 112.68 11.63 113.22 11.45 113.91 10.8 114.59 10.16 114.71 9.84L114.71 9.84Q118.82 0.66 118.82 0.24 118.82-0.17 118.33-0.78L118.33-0.78 110.27-17.6Q109.37-20.07 107.17-20.78L107.17-20.78Q107-20.83 106.75-20.85L106.75-20.85Q105.73-20.95 105.73-21.46 105.73-21.97 106.32-21.97L106.32-21.97 117.18-21.97Q117.38-21.97 117.38-21.59 117.38-21.22 117.03-21.08 116.69-20.95 115.52-20.95L115.52-20.95Q113.64-20.95 113.64-19.48L113.64-19.48 113.86-18.9 120.18-5.35Q120.67-4.1 121.16-5.42L121.16-5.42Q121.21-5.54 121.77-7.01L121.77-7.01Q125.09-15.43 125.49-16.75 125.9-18.07 125.9-18.73 125.9-19.38 125.2-20.12 124.5-20.85 123.3-20.85 122.09-20.85 122.09-21.56L122.09-21.56Q122.09-21.97 122.62-21.97L122.62-21.97ZM184.04-15.14L198.93-15.14Q199.2-15.14 199.2-14.76 199.2-14.38 198.93-14.23L198.93-14.23Q198.27-13.96 197.57-13.77 196.88-13.57 196.29-13.26L196.29-13.26Q194.95-12.52 194.95-10.89L194.95-10.89 194.95-2.95Q194.95-2.42 192.37-1.51 189.8-0.61 188.19-0.2L188.19-0.2Q180.64 1.66 174.71-0.59L174.71-0.59Q167.9-3.2 165.07-9.94L165.07-9.94Q163.65-13.31 163.65-16.64 163.65-19.97 164.31-22.24L164.31-22.24Q166.31-29.17 172.71-32.91L172.71-32.91Q176.88-35.35 181.49-35.35 186.09-35.35 191.26-33.5L191.26-33.5Q192.22-33.15 192.34-33.15L192.34-33.15 192.63-33.15 193.61-33.4 194.22-33.4Q194.49-33.4 194.49-33.13L194.49-33.13 194.49-25Q194.49-24.54 193.95-24.54L193.95-24.54 193.85-24.54Q193.39-24.58 193.22-25.78L193.22-25.78Q193.17-26.03 193.14-26.15L193.14-26.15Q190.7-33.79 182.84-33.79L182.84-33.79Q176.54-33.79 172.79-29.03 169.05-24.27 169.05-17.7 169.05-11.13 172.82-6.09 176.59-1.05 183.18-1.05L183.18-1.05Q186.58-1.05 188.77-2.1L188.77-2.1Q189.63-2.51 190.09-3.15L190.09-3.15 190.09-9.84Q190.09-12.11 188.8-13.17 187.5-14.23 184.04-14.23L184.04-14.23Q183.77-14.23 183.77-14.69 183.77-15.14 184.04-15.14L184.04-15.14ZM227.55-12.87L213.39-12.87Q212.97-12.87 212.97-11.08L212.97-11.08Q212.97-7.3 215.22-4.74 217.47-2.17 220.8-2.17 224.13-2.17 227.21-5.05L227.21-5.05Q227.26-5.1 227.33-5.1L227.33-5.1 227.45-5.1Q227.6-5.1 227.73-4.87 227.87-4.64 227.99-4.57L227.99-4.57Q225.16-1.12 221.32 0.2L221.32 0.2Q220 0.66 218.34 0.66 216.68 0.66 214.97-0.26 213.27-1.17 212.05-2.66L212.05-2.66Q209.46-5.76 209.46-10.39 209.46-15.01 212.28-18.82 215.1-22.63 220.03-22.63L220.03-22.63Q223.57-22.63 225.81-19.47 228.06-16.31 228.06-13.92L228.06-13.92Q228.06-12.87 227.55-12.87L227.55-12.87ZM213.66-15.5L213.66-15.21Q213.66-14.75 214.1-14.75L214.1-14.75 223.3-14.75Q223.93-14.75 223.93-15.5L223.93-15.5Q223.93-17.26 222.36-19.1 220.79-20.95 218.91-20.95L218.91-20.95Q217.07-20.95 215.57-19.29 214.07-17.63 213.66-15.5L213.66-15.5ZM257.41-7.69L257.41-7.69 257.36-12.84Q257.36-15.99 256.83-17.26 256.29-18.53 255.46-19.18 254.63-19.82 253.22-19.82 251.82-19.82 247.28-17.63L247.28-17.63Q246.67-17.26 246.65-16.94L246.65-16.94 246.65-3.81Q246.65-1.34 249.28-0.98L249.28-0.98Q250.43-0.81 250.43-0.43 250.43-0.05 250.19 0L250.19 0 239.3 0Q239.05-0.05 239.05-0.34L239.05-0.34Q239.05-0.81 240.2-0.98L240.2-0.98Q242.84-1.34 242.84-3.81L242.84-3.81 242.84-17.82Q242.84-18.85 241.71-19.24L241.71-19.24Q241.23-19.41 240.66-19.52 240.1-19.63 239.77-19.73 239.44-19.82 239.36-19.91 239.27-20 239.27-20.28 239.27-20.56 239.64-20.75L239.64-20.75 245.86-23.68Q246.16-23.83 246.23-23.83L246.23-23.83Q246.65-23.83 246.65-23.24L246.65-23.24 246.65-19.43Q246.72-19.19 246.84-19.19L246.84-19.19Q246.99-19.19 247.89-19.63L247.89-19.63Q249.99-20.68 252.11-21.66 254.24-22.63 255.63-22.63L255.63-22.63Q261.27-22.63 261.27-12.35L261.27-12.35 261.05-5.22 261.05-3.81Q261.05-1.9 262.95-1.32L262.95-1.32Q263.76-1.05 264.5-0.94 265.25-0.83 265.48-0.73 265.71-0.63 265.71-0.34 265.71-0.05 265.47 0L265.47 0 253.7 0Q253.46-0.05 253.46-0.34L253.46-0.34Q253.46-0.81 254.6-0.98L254.6-0.98Q257.22-1.34 257.22-4L257.22-4Q257.41-5.22 257.41-7.69ZM291.94 0.05L291.94-2.15Q291.82-2.56 291.62-2.43 291.43-2.29 290.03-1.59L290.03-1.59Q285.47 0.68 282.42 0.68 279.37 0.68 278.02-1.27L278.02-1.27Q277.53-2 277.53-3.08L277.53-3.08 277.53-17.97Q277.46-18.68 276.9-19.19L276.9-19.19Q276.14-19.82 275.33-19.87 274.51-19.92 274.51-20.37 274.51-20.83 274.9-20.92L274.9-20.92 280.49-22.53Q280.78-22.63 281.06-22.63 281.34-22.63 281.34-22.22L281.34-22.22 281.34-5.83Q281.34-4.13 282.86-3.2 284.37-2.27 286.73-2.27 289.08-2.27 290.96-3.71L290.96-3.71Q291.55-4.17 291.94-4.74L291.94-4.74 291.94-17.97Q291.87-18.68 291.3-19.19L291.3-19.19Q290.55-19.82 289.73-19.87 288.91-19.92 288.91-20.37 288.91-20.83 289.3-20.92L289.3-20.92 294.89-22.53Q295.19-22.63 295.47-22.63 295.75-22.63 295.75-22.14L295.75-22.14 295.75-4.81Q295.87-3.74 296.36-3.27 296.85-2.81 297.94-2.81L297.94-2.81 299.36-2.91Q299.51-2.91 299.51-2.62 299.51-2.34 299.14-2.17L299.14-2.17 292.65 0.51Q292.35 0.66 292.15 0.66 291.94 0.66 291.94 0.05L291.94 0.05ZM320.9 0L310.01 0Q309.77-0.05 309.77-0.34L309.77-0.34Q309.77-0.78 310.91-0.93L310.91-0.93Q313.55-1.32 313.55-3.71L313.55-3.71 313.55-16.63Q313.55-17.65 312.43-18.04L312.43-18.04Q311.94-18.21 311.38-18.32 310.82-18.43 310.49-18.53 310.16-18.63 310.07-18.71 309.99-18.8 309.99-19.08 309.99-19.36 310.35-19.56L310.35-19.56 316.58-22.49Q316.87-22.63 316.94-22.63L316.94-22.63Q317.36-22.63 317.36-22.05L317.36-22.05 317.36-3.71Q317.36-1.32 320-0.93L320-0.93Q321.14-0.78 321.14-0.42 321.14-0.05 320.9 0L320.9 0ZM315.1-29.49Q314.09-29.49 313.32-30.13 312.55-30.76 312.55-31.9 312.55-33.03 313.28-33.69 314.01-34.35 315.03-34.35 316.04-34.35 316.74-33.57 317.43-32.79 317.43-31.88 317.43-30.98 316.77-30.24 316.11-29.49 315.1-29.49ZM349.32-7.69L349.32-7.69 349.27-12.84Q349.27-15.99 348.74-17.26 348.2-18.53 347.37-19.18 346.54-19.82 345.14-19.82 343.73-19.82 339.19-17.63L339.19-17.63Q338.58-17.26 338.56-16.94L338.56-16.94 338.56-3.81Q338.56-1.34 341.19-0.98L341.19-0.98Q342.34-0.81 342.34-0.43 342.34-0.05 342.1 0L342.1 0 331.21 0Q330.96-0.05 330.96-0.34L330.96-0.34Q330.96-0.81 332.11-0.98L332.11-0.98Q334.75-1.34 334.75-3.81L334.75-3.81 334.75-17.82Q334.75-18.85 333.62-19.24L333.62-19.24Q333.14-19.41 332.58-19.52 332.01-19.63 331.68-19.73 331.35-19.82 331.27-19.91 331.18-20 331.18-20.28 331.18-20.56 331.55-20.75L331.55-20.75 337.78-23.68Q338.07-23.83 338.14-23.83L338.14-23.83Q338.56-23.83 338.56-23.24L338.56-23.24 338.56-19.43Q338.63-19.19 338.75-19.19L338.75-19.19Q338.9-19.19 339.8-19.63L339.8-19.63Q341.9-20.68 344.03-21.66 346.15-22.63 347.54-22.63L347.54-22.63Q353.18-22.63 353.18-12.35L353.18-12.35 352.96-5.22 352.96-3.81Q352.96-1.9 354.87-1.32L354.87-1.32Q355.67-1.05 356.42-0.94 357.16-0.83 357.39-0.73 357.62-0.63 357.62-0.34 357.62-0.05 357.38 0L357.38 0 345.61 0Q345.37-0.05 345.37-0.34L345.37-0.34Q345.37-0.81 346.52-0.98L346.52-0.98Q349.13-1.34 349.13-4L349.13-4Q349.32-5.22 349.32-7.69ZM385.24-12.87L371.08-12.87Q370.67-12.87 370.67-11.08L370.67-11.08Q370.67-7.3 372.91-4.74 375.16-2.17 378.49-2.17 381.82-2.17 384.9-5.05L384.9-5.05Q384.95-5.1 385.02-5.1L385.02-5.1 385.14-5.1Q385.29-5.1 385.42-4.87 385.56-4.64 385.68-4.57L385.68-4.57Q382.85-1.12 379.02 0.2L379.02 0.2Q377.7 0.66 376.04 0.66 374.38 0.66 372.67-0.26 370.96-1.17 369.74-2.66L369.74-2.66Q367.15-5.76 367.15-10.39 367.15-15.01 369.97-18.82 372.79-22.63 377.72-22.63L377.72-22.63Q381.26-22.63 383.51-19.47 385.75-16.31 385.75-13.92L385.75-13.92Q385.75-12.87 385.24-12.87L385.24-12.87ZM371.35-15.5L371.35-15.21Q371.35-14.75 371.79-14.75L371.79-14.75 380.99-14.75Q381.63-14.75 381.63-15.5L381.63-15.5Q381.63-17.26 380.05-19.1 378.48-20.95 376.6-20.95L376.6-20.95Q374.77-20.95 373.27-19.29 371.77-17.63 371.35-15.5L371.35-15.5ZM428.47-0.98L428.47-0.98Q428.61-0.98 428.61-0.78L428.61-0.78 428.61-0.2Q428.61 0 428.47 0L428.47 0 417.06 0Q416.87 0 416.87-0.2L416.87-0.2 416.87-0.78Q416.87-0.98 417.06-0.98L417.06-0.98Q421.07-0.98 421.41-4.42L421.41-4.42Q421.51-5.42 421.62-7.75 421.73-10.08 422.26-17.79 422.8-25.49 422.8-30.25L422.8-30.25 422.8-31.15Q422.8-32.13 421.69-32.79 420.58-33.45 420.07-33.45 419.55-33.45 419.55-33.64L419.55-33.64 419.55-34.23Q419.55-34.42 419.75-34.42L419.75-34.42 426.81-34.42Q427.27-34.35 427.56-33.89L427.56-33.89 439.01-8.37Q439.13-8.2 439.21-8.08 439.28-7.96 439.57-7.97 439.87-7.98 440.01-8.4L440.01-8.4 451.34-33.45Q451.85-34.42 452.27-34.42L452.27-34.42 459.37-34.42Q459.57-34.42 459.57-34.23L459.57-34.23 459.57-33.64Q459.57-33.45 459.45-33.45L459.45-33.45Q458.71-33.45 457.64-32.96L457.64-32.96Q456-32.23 456-30.79L456-30.79 457.47-3.81Q457.52-2.54 458.79-1.76 460.06-0.98 462.11-0.98L462.11-0.98Q462.3-0.98 462.3-0.78L462.3-0.78 462.3-0.2Q462.3 0 462.11 0L462.11 0 448.24 0Q448.05 0 448.05-0.2L448.05-0.2 448.05-0.78Q448.05-0.98 448.24-0.98L448.24-0.98Q452.61-0.98 452.61-3.1L452.61-3.1 451.32-26.42Q451.29-26.66 451.18-26.66 451.07-26.66 451-26.44L451-26.44 438.87-0.17Q438.77 0 438.3 0 437.84 0 437.77-0.2L437.77-0.2 425.8-26.51Q425.66-26.86 425.52-26.86 425.39-26.86 425.39-26.32L425.39-26.32Q425.39-25.2 424.8-15.72 424.22-6.25 424.22-3.91L424.22-3.91 424.22-2.91Q424.51-1.51 426.98-1.1L426.98-1.1Q427.68-0.98 428.47-0.98ZM490.46-12.87L476.3-12.87Q475.88-12.87 475.88-11.08L475.88-11.08Q475.88-7.3 478.13-4.74 480.38-2.17 483.71-2.17 487.04-2.17 490.12-5.05L490.12-5.05Q490.17-5.1 490.24-5.1L490.24-5.1 490.36-5.1Q490.51-5.1 490.64-4.87 490.78-4.64 490.9-4.57L490.9-4.57Q488.07-1.12 484.23 0.2L484.23 0.2Q482.91 0.66 481.25 0.66 479.59 0.66 477.89-0.26 476.18-1.17 474.96-2.66L474.96-2.66Q472.37-5.76 472.37-10.39 472.37-15.01 475.19-18.82 478.01-22.63 482.94-22.63L482.94-22.63Q486.48-22.63 488.73-19.47 490.97-16.31 490.97-13.92L490.97-13.92Q490.97-12.87 490.46-12.87L490.46-12.87ZM476.57-15.5L476.57-15.21Q476.57-14.75 477.01-14.75L477.01-14.75 486.21-14.75Q486.85-14.75 486.85-15.5L486.85-15.5Q486.85-17.26 485.27-19.1 483.7-20.95 481.82-20.95L481.82-20.95Q479.99-20.95 478.48-19.29 476.98-17.63 476.57-15.5L476.57-15.5ZM517.47-21.62Q518.54-21.24 518.78-21.24 519.03-21.24 519.09-21.25 519.15-21.26 519.25-21.56L519.25-21.56 519.25-34.16Q519.25-35.18 518.13-35.57L518.13-35.57Q517.64-35.74 517.08-35.85 516.51-35.96 516.18-36.06 515.85-36.16 515.77-36.24 515.68-36.33 515.68-36.61 515.68-36.89 516.05-37.08L516.05-37.08 522.28-40.01Q522.57-40.16 522.64-40.16L522.64-40.16Q523.06-40.16 523.06-39.58L523.06-39.58 523.06-4.81Q523.18-3.74 523.67-3.27 524.16-2.81 525.25-2.81L525.25-2.81 526.67-2.91Q526.82-2.91 526.82-2.62 526.82-2.34 526.45-2.17L526.45-2.17 519.96 0.51Q519.66 0.66 519.46 0.66 519.25 0.66 519.25 0.05L519.25 0.05 519.25-2.17Q519.25-2.42 519.13-2.42L519.13-2.42Q518.96-2.42 517.1-1.32L517.1-1.32Q511.41 2.05 507.51-0.32L507.51-0.32Q504.38-2.22 503.28-6.35L503.28-6.35Q502.77-8.28 502.77-10.44 502.77-12.6 503.66-14.73 504.55-16.87 506.11-18.48L506.11-18.48Q509.56-22 514.41-22L514.41-22Q516.39-22 517.47-21.62ZM506.46-11.15Q506.46-7.45 508.51-4.68 510.56-1.9 514.22-1.9L514.22-1.9Q515.83-1.9 517.54-2.7 519.25-3.49 519.25-3.91L519.25-3.91 519.25-16.5Q519.25-16.97 518.61-17.6L518.61-17.6Q516.66-20.29 513.43-20.29 510.19-20.29 508.32-17.57 506.46-14.84 506.46-11.15ZM547.23 0L536.34 0Q536.1-0.05 536.1-0.34L536.1-0.34Q536.1-0.78 537.25-0.93L537.25-0.93Q539.88-1.32 539.88-3.71L539.88-3.71 539.88-16.63Q539.88-17.65 538.76-18.04L538.76-18.04Q538.27-18.21 537.71-18.32 537.15-18.43 536.82-18.53 536.49-18.63 536.4-18.71 536.32-18.8 536.32-19.08 536.32-19.36 536.69-19.56L536.69-19.56 542.91-22.49Q543.2-22.63 543.28-22.63L543.28-22.63Q543.69-22.63 543.69-22.05L543.69-22.05 543.69-3.71Q543.69-1.32 546.33-0.93L546.33-0.93Q547.48-0.78 547.48-0.42 547.48-0.05 547.23 0L547.23 0ZM541.43-29.49Q540.42-29.49 539.65-30.13 538.88-30.76 538.88-31.9 538.88-33.03 539.62-33.69 540.35-34.35 541.36-34.35 542.37-34.35 543.07-33.57 543.77-32.79 543.77-31.88 543.77-30.98 543.11-30.24 542.45-29.49 541.43-29.49ZM576.9-19.7L576.9-19.7Q576.9-17.99 574.92-17.99L574.92-17.99Q573.92-17.99 573.23-18.57 572.53-19.14 572.15-19.54 571.77-19.95 571.36-20.29L571.36-20.29Q569.6-21.73 567.07-20.61 564.55-19.48 563.18-15.82L563.18-15.82Q562.42-13.79 562.42-11.79L562.42-11.79Q562.42-7.5 564.38-4.77 566.33-2.05 570.36-2.05L570.36-2.05Q573.36-2.05 575.75-4.74L575.75-4.74Q576.49-5.54 576.63-5.54 576.78-5.54 576.95-5.4 577.12-5.25 577.12-4.97 577.12-4.69 576.97-4.54L576.97-4.54Q573.24 0.66 567.57 0.66L567.57 0.66Q563.47 0.66 560.85-2.39 558.22-5.44 558.22-9.38L558.22-9.38Q558.25-16.65 561.74-19.85L561.74-19.85Q564.82-22.66 570.5-22.66L570.5-22.66Q574.02-22.66 575.17-21.95 576.32-21.24 576.78-20.17L576.78-20.17Q576.9-19.92 576.9-19.7ZM598.76 0L587.87 0Q587.62-0.05 587.62-0.34L587.62-0.34Q587.62-0.78 588.77-0.93L588.77-0.93Q591.41-1.32 591.41-3.71L591.41-3.71 591.41-16.63Q591.41-17.65 590.29-18.04L590.29-18.04Q589.8-18.21 589.24-18.32 588.67-18.43 588.34-18.53 588.02-18.63 587.93-18.71 587.84-18.8 587.84-19.08 587.84-19.36 588.21-19.56L588.21-19.56 594.44-22.49Q594.73-22.63 594.8-22.63L594.8-22.63Q595.22-22.63 595.22-22.05L595.22-22.05 595.22-3.71Q595.22-1.32 597.85-0.93L597.85-0.93Q599-0.78 599-0.42 599-0.05 598.76 0L598.76 0ZM592.96-29.49Q591.95-29.49 591.18-30.13 590.41-30.76 590.41-31.9 590.41-33.03 591.14-33.69 591.87-34.35 592.89-34.35 593.9-34.35 594.59-33.57 595.29-32.79 595.29-31.88 595.29-30.98 594.63-30.24 593.97-29.49 592.96-29.49ZM627.18-7.69L627.18-7.69 627.13-12.84Q627.13-15.99 626.59-17.26 626.06-18.53 625.23-19.18 624.4-19.82 622.99-19.82 621.59-19.82 617.05-17.63L617.05-17.63Q616.44-17.26 616.41-16.94L616.41-16.94 616.41-3.81Q616.41-1.34 619.05-0.98L619.05-0.98Q620.2-0.81 620.2-0.43 620.2-0.05 619.95 0L619.95 0 609.07 0Q608.82-0.05 608.82-0.34L608.82-0.34Q608.82-0.81 609.97-0.98L609.97-0.98Q612.61-1.34 612.61-3.81L612.61-3.81 612.61-17.82Q612.61-18.85 611.48-19.24L611.48-19.24Q610.99-19.41 610.43-19.52 609.87-19.63 609.54-19.73 609.21-19.82 609.13-19.91 609.04-20 609.04-20.28 609.04-20.56 609.41-20.75L609.41-20.75 615.63-23.68Q615.93-23.83 616-23.83L616-23.83Q616.41-23.83 616.41-23.24L616.41-23.24 616.41-19.43Q616.49-19.19 616.61-19.19L616.61-19.19Q616.76-19.19 617.66-19.63L617.66-19.63Q619.76-20.68 621.88-21.66 624.01-22.63 625.4-22.63L625.4-22.63Q631.04-22.63 631.04-12.35L631.04-12.35 630.82-5.22 630.82-3.81Q630.82-1.9 632.72-1.32L632.72-1.32Q633.53-1.05 634.27-0.94 635.02-0.83 635.25-0.73 635.48-0.63 635.48-0.34 635.48-0.05 635.24 0L635.24 0 623.47 0Q623.23-0.05 623.23-0.34L623.23-0.34Q623.23-0.81 624.37-0.98L624.37-0.98Q626.99-1.34 626.99-4L626.99-4Q627.18-5.22 627.18-7.69ZM663.1-12.87L648.94-12.87Q648.52-12.87 648.52-11.08L648.52-11.08Q648.52-7.3 650.77-4.74 653.02-2.17 656.35-2.17 659.68-2.17 662.76-5.05L662.76-5.05Q662.81-5.1 662.88-5.1L662.88-5.1 663-5.1Q663.15-5.1 663.28-4.87 663.42-4.64 663.54-4.57L663.54-4.57Q660.71-1.12 656.87 0.2L656.87 0.2Q655.56 0.66 653.9 0.66 652.24 0.66 650.53-0.26 648.82-1.17 647.6-2.66L647.6-2.66Q645.01-5.76 645.01-10.39 645.01-15.01 647.83-18.82 650.65-22.63 655.58-22.63L655.58-22.63Q659.12-22.63 661.37-19.47 663.61-16.31 663.61-13.92L663.61-13.92Q663.61-12.87 663.1-12.87L663.1-12.87ZM649.21-15.5L649.21-15.21Q649.21-14.75 649.65-14.75L649.65-14.75 658.85-14.75Q659.49-14.75 659.49-15.5L659.49-15.5Q659.49-17.26 657.91-19.1 656.34-20.95 654.46-20.95L654.46-20.95Q652.63-20.95 651.12-19.29 649.62-17.63 649.21-15.5L649.21-15.5ZM686.88-18.95L686.88-16.7Q686.88-16.16 686.48-16.16 686.08-16.16 685.86-16.75L685.86-16.75Q685.27-18.36 684.11-19.6 682.95-20.85 681.24-20.85L681.24-20.85Q679-20.85 678.22-18.6L678.22-18.6Q677.97-17.85 677.97-17.04 677.97-16.24 679-15.25 680.02-14.26 682.37-12.89 684.71-11.52 685.79-10.57L685.79-10.57Q688.23-8.4 688.23-5.54 688.23-2.69 686.13-1.01 684.03 0.66 681.24 0.66L681.24 0.66Q679.76 0.66 678.55 0.26 677.34-0.15 677.16-0.15 676.97-0.15 676.57 0.26 676.17 0.66 675.92 0.66L675.92 0.66 675.51 0.66Q675.36 0.66 675.14-1.98 674.92-4.61 674.92-5.1 674.92-5.59 675.01-5.64 675.09-5.69 675.29-5.69 675.48-5.69 675.62-5.57 675.75-5.44 675.85-5.26 675.95-5.08 676.01-4.88 676.07-4.69 676.31-4.15L676.31-4.15Q677.97-0.61 681.44-0.61L681.44-0.61Q682.98-0.61 683.91-1.75 684.83-2.88 684.83-4.27 684.83-5.66 684.1-6.62 683.37-7.57 682.28-8.35 681.2-9.13 679.93-9.86L679.93-9.86Q674.99-12.74 674.99-16.24L674.99-16.24Q674.99-18.85 677.24-20.74 679.49-22.63 681.86-22.63 684.22-22.63 685.36-22.12 686.49-21.61 686.69-21.25 686.88-20.9 686.88-18.95L686.88-18.95Z" opacity="1" transform="matrix(1,0,0,1,0,0)" fill="#8a0303" class="undefined-text-1" data-fill-palette-color="secondary" id="text-1"></path></svg></g></svg></g></svg></g></svg></g><g><svg viewBox="0 0 254.37638907589394 254.37638907589394" height="254.37638907589394" width="254.37638907589394"><g><svg></svg></g><g id="icon-0"><svg viewBox="0 0 254.37638907589394 254.37638907589394" height="254.37638907589394" width="254.37638907589394"><g><path d="M0 127.188c0-70.244 56.944-127.188 127.188-127.188 70.244 0 127.188 56.944 127.188 127.188 0 70.244-56.944 127.188-127.188 127.188-70.244 0-127.188-56.944-127.188-127.188zM127.188 251.891c68.872 0 124.703-55.831 124.703-124.703 0-68.872-55.831-124.703-124.703-124.703-68.872 0-124.703 55.831-124.703 124.703 0 68.872 55.831 124.703 124.703 124.703z" data-fill-palette-color="accent" fill="#8a0303" stroke="transparent"></path></g><g transform="matrix(1,0,0,1,48.46788329145946,56.53193002671101)"><svg viewBox="0 0 157.44062249297502 141.31252902247192" height="141.31252902247192" width="157.44062249297502"><g><svg xmlns="http://www.w3.org/2000/svg" xmlns:xlink="http://www.w3.org/1999/xlink" version="1.1" x="0" y="0" viewBox="0 5.249999523162842 50.303001403808594 45.150001525878906" enable-background="new 0 0 50.4 50.4" xml:space="preserve" width="157.44062249297502" height="141.31252902247192" class="icon-s-0" data-fill-palette-color="accent" id="s-0"><g fill="#8a0303" data-fill-palette-color="accent"><g fill="#8a0303" data-fill-palette-color="accent"><path d="M35.095 39.273c-2.207 0-4.005-1.796-4.005-4.006 0-2.214 1.798-4.011 4.005-4.011 2.219 0 4.013 1.795 4.013 4.011C39.108 37.477 37.313 39.273 35.095 39.273z" fill="#8a0303" data-fill-palette-color="accent"></path></g><path d="M34.216 50.055l0.13-0.085h0.007l4.942-5.095c0.205-0.211 0.541-0.215 0.751-0.013 0.211 0.204 0.217 0.543 0.013 0.752l-4.589 4.733H46.23c0 0-1.178-5.319-4.769-9.208-0.956-1.156-3.521-2.26-5.288-0.594-1.451 1.364-2.299 3.553-2.793 5.481l-4.507-4.56c-0.724-0.733-1.902-0.739-2.633-0.016-0.731 0.723-0.737 1.901-0.016 2.634l5.652 5.716c0.361 0.364 0.84 0.552 1.324 0.552C33.552 50.354 33.905 50.257 34.216 50.055z" fill="#8a0303" data-fill-palette-color="accent"></path></g><g fill="#8a0303" data-fill-palette-color="accent"><g fill="#8a0303" data-fill-palette-color="accent"><path d="M11.134 39.273c2.207 0 4.005-1.796 4.005-4.006 0-2.214-1.799-4.011-4.005-4.011-2.218 0-4.011 1.795-4.011 4.011C7.122 37.477 8.915 39.273 11.134 39.273z" fill="#8a0303" data-fill-palette-color="accent"></path></g><path d="M12.013 50.055l-0.129-0.085h-0.006l-4.943-5.095c-0.204-0.211-0.541-0.215-0.75-0.013-0.213 0.204-0.218 0.543-0.014 0.752l4.59 4.733H0c0 0 1.178-5.319 4.77-9.208 0.955-1.156 3.52-2.26 5.288-0.594 1.448 1.364 2.298 3.553 2.792 5.481l4.508-4.56c0.723-0.733 1.901-0.739 2.632-0.016 0.73 0.723 0.736 1.901 0.016 2.634l-5.652 5.716c-0.362 0.364-0.841 0.552-1.324 0.552C12.678 50.354 12.325 50.257 12.013 50.055z" fill="#8a0303" data-fill-palette-color="accent"></path></g><g fill="#8a0303" data-fill-palette-color="accent"><polygon points="21.336,23.748 21.336,33.995 24.954,33.995 24.954,27.348 46.686,27.348 46.686,50.4 50.303,50.4 50.303,23.748     " fill="#8a0303" data-fill-palette-color="accent"></polygon><rect x="21.336" y="37.085" width="3.618" height="13.315" fill="#8a0303" data-fill-palette-color="accent"></rect></g><path d="M44.7 9.742H33.95l-5.195-4.492-1.533 1.264 2.407 3.228h-4.205c0 3.948 2.376 7.338 5.775 8.827h-3.304v2.993h14.333v-2.993h-3.308C42.322 17.081 44.7 13.691 44.7 9.742zM31.184 15.865V13.5h2.687l-0.002-2.688h2.365L36.232 13.5h2.708v2.364h-2.708l0.002 2.705h-2.365l0.002-2.705H31.184z" fill="#8a0303" data-fill-palette-color="accent"></path></svg></g></svg></g></svg></g></svg></g><g></g></svg></g></svg></g></svg></g><defs></defs></svg><rect width="448" height="360" fill="none" stroke="none" visibility="hidden"></rect></g></svg></g></svg>